<?xml version="1.0" encoding="utf-8"?>
<!DOCTYPE svg PUBLIC "-//W3C//DTD SVG 1.1//EN" "http://www.w3.org/Graphics/SVG/1.1/DTD/svg11.dtd">
<svg version="1.1" xmlns:xlink="http://www.w3.org/1999/xlink" viewBox="0 0 1000 1000"  xmlns:xml="http://www.w3.org/XML/1998/namespace" 
width="100" height="100" xmlns="http://www.w3.org/2000/svg">
  <rect x="0" y="0" width="1000" height="1000" stroke-width="6" style="fill:url(#coverPattern);" />
  <defs>
    <pattern width="100" height="100" patternUnits="userSpaceOnUse" id="coverPattern" style="fill:none;">
      <rect width="100" height="100" stroke-width="3" style="stroke:black;" />
    </pattern>
  </defs>
  <svg width="100" height="100" y="0" x="900">
    <line x1="50" y1="0" x2="50" y2="50" transform="rotate(90, 50, 50)" stroke-width="10" style="stroke:black;" />
    <circle cx="50" cy="50" r="10" style="fill:black;" />
  </svg>
  <svg y="100" x="100">
    <path d="M0,27.5 L0,57.5 57.5,0 27.5,0 Z" />
    <path d="M0,84 L0,99 15,99 99,15 99,0 84,0 Z" />
    <path d="M99,71.5 L99,41.5 41.5,99 71.5,99 Z" />
  </svg>
  <svg y="100" x="200">
    <path d="M0,27.5 L0,57.5 57.5,0 27.5,0 Z" />
    <path d="M0,84 L0,99 15,99 99,15 99,0 84,0 Z" />
    <path d="M99,71.5 L99,41.5 41.5,99 71.5,99 Z" />
  </svg>
  <svg y="200" x="100">
    <path d="M0,27.5 L0,57.5 57.5,0 27.5,0 Z" />
    <path d="M0,84 L0,99 15,99 99,15 99,0 84,0 Z" />
    <path d="M99,71.5 L99,41.5 41.5,99 71.5,99 Z" />
  </svg>
  <svg y="200" x="200">
    <path d="M0,27.5 L0,57.5 57.5,0 27.5,0 Z" />
    <path d="M0,84 L0,99 15,99 99,15 99,0 84,0 Z" />
    <path d="M99,71.5 L99,41.5 41.5,99 71.5,99 Z" />
  </svg>
  <svg width="100" height="100" y="200" x="300">
    <line x1="50" y1="0" x2="50" y2="50" transform="rotate(270, 50, 50)" stroke-width="10" style="stroke:black;" />
    <circle cx="50" cy="50" r="10" style="fill:black;" />
  </svg>
  <svg y="500" x="300">
    <path d="M0,27.5 L0,57.5 57.5,0 27.5,0 Z" />
    <path d="M0,84 L0,99 15,99 99,15 99,0 84,0 Z" />
    <path d="M99,71.5 L99,41.5 41.5,99 71.5,99 Z" />
  </svg>
  <svg y="500" x="400">
    <path d="M0,27.5 L0,57.5 57.5,0 27.5,0 Z" />
    <path d="M0,84 L0,99 15,99 99,15 99,0 84,0 Z" />
    <path d="M99,71.5 L99,41.5 41.5,99 71.5,99 Z" />
  </svg>
  <svg width="100" height="100" y="600" x="300">
    <line x1="50" y1="0" x2="50" y2="50" transform="rotate(0, 50, 50)" stroke-width="10" style="stroke:black;" />
    <circle cx="50" cy="50" r="10" style="fill:black;" />
  </svg>
  <svg width="100" height="100" y="900" x="900">
    <line x1="50" y1="0" x2="50" y2="50" transform="rotate(90, 50, 50)" stroke-width="10" style="stroke:black;" />
    <circle cx="50" cy="50" r="10" style="fill:black;" />
  </svg>
</svg>