<?xml version="1.0" encoding="utf-8"?>
<!DOCTYPE svg PUBLIC "-//W3C//DTD SVG 1.1//EN" "http://www.w3.org/Graphics/SVG/1.1/DTD/svg11.dtd">
<svg version="1.1" xmlns:xlink="http://www.w3.org/1999/xlink" xmlns:xml="http://www.w3.org/XML/1998/namespace" width="1000" height="1000" xmlns="http://www.w3.org/2000/svg">
  <rect x="0" y="0" width="1000" height="1000" stroke-width="6" style="fill:url(#coverPattern);" />
  <defs>
    <pattern width="100" height="100" patternUnits="userSpaceOnUse" id="coverPattern" style="fill:none;">
      <rect width="100" height="100" stroke-width="3" style="stroke:black;" />
    </pattern>
  </defs>
  <svg width="100" height="100" y="0" x="900">
    <line x1="50" y1="0" x2="50" y2="50" transform="rotate(90, 50, 50)" stroke-width="10" style="stroke:black;" />
    <circle cx="50" cy="50" r="10" style="fill:black;" />
  </svg>
  <rect width="100" height="100" fill-opacity="0.59" y="0" x="900" style="fill:#CD5C5C;" />
  <svg y="100" x="100">
    <path d="M0,27.5 L0,57.5 57.5,0 27.5,0 Z" />
    <path d="M0,84 L0,99 15,99 99,15 99,0 84,0 Z" />
    <path d="M99,71.5 L99,41.5 41.5,99 71.5,99 Z" />
  </svg>
  <svg y="100" x="200">
    <path d="M0,27.5 L0,57.5 57.5,0 27.5,0 Z" />
    <path d="M0,84 L0,99 15,99 99,15 99,0 84,0 Z" />
    <path d="M99,71.5 L99,41.5 41.5,99 71.5,99 Z" />
  </svg>
  <svg y="200" x="100">
    <path d="M0,27.5 L0,57.5 57.5,0 27.5,0 Z" />
    <path d="M0,84 L0,99 15,99 99,15 99,0 84,0 Z" />
    <path d="M99,71.5 L99,41.5 41.5,99 71.5,99 Z" />
  </svg>
  <svg y="200" x="200">
    <path d="M0,27.5 L0,57.5 57.5,0 27.5,0 Z" />
    <path d="M0,84 L0,99 15,99 99,15 99,0 84,0 Z" />
    <path d="M99,71.5 L99,41.5 41.5,99 71.5,99 Z" />
  </svg>
  <svg width="100" height="100" y="200" x="300">
    <line x1="50" y1="0" x2="50" y2="50" transform="rotate(270, 50, 50)" stroke-width="10" style="stroke:black;" />
    <circle cx="50" cy="50" r="10" style="fill:black;" />
  </svg>
  <svg width="100" height="100" y="400" x="200">
    <text x="50" y="80" font-family="sans-serif" font-weight="550" font-size="80px" letter-spacing="-5" text-anchor="middle">2</text>
  </svg>
  <svg width="100" height="100" y="500" x="100">
    <text x="50" y="80" font-family="sans-serif" font-weight="550" font-size="80px" letter-spacing="-5" text-anchor="middle">2</text>
  </svg>
  <svg width="100" height="100" y="500" x="200">
    <text x="50" y="80" font-family="sans-serif" font-weight="550" font-size="80px" letter-spacing="-5" text-anchor="middle">1</text>
  </svg>
  <svg y="500" x="300">
    <path d="M0,27.5 L0,57.5 57.5,0 27.5,0 Z" />
    <path d="M0,84 L0,99 15,99 99,15 99,0 84,0 Z" />
    <path d="M99,71.5 L99,41.5 41.5,99 71.5,99 Z" />
  </svg>
  <svg y="500" x="400">
    <path d="M0,27.5 L0,57.5 57.5,0 27.5,0 Z" />
    <path d="M0,84 L0,99 15,99 99,15 99,0 84,0 Z" />
    <path d="M99,71.5 L99,41.5 41.5,99 71.5,99 Z" />
  </svg>
  <svg width="100" height="100" y="500" x="500">
    <text x="50" y="80" font-family="sans-serif" font-weight="550" font-size="80px" letter-spacing="-5" text-anchor="middle">2</text>
  </svg>
  <svg width="100" height="100" y="600" x="0">
    <text x="50" y="80" font-family="sans-serif" font-weight="550" font-size="80px" letter-spacing="-5" text-anchor="middle">2</text>
  </svg>
  <svg width="100" height="100" y="600" x="100">
    <text x="50" y="80" font-family="sans-serif" font-weight="550" font-size="80px" letter-spacing="-5" text-anchor="middle">1</text>
  </svg>
  <svg width="100" height="100" y="600" x="200">
    <text x="50" y="80" font-family="sans-serif" font-weight="550" font-size="80px" letter-spacing="-5" text-anchor="middle">1</text>
  </svg>
  <svg width="100" height="100" y="600" x="300">
    <line x1="50" y1="0" x2="50" y2="50" transform="rotate(0, 50, 50)" stroke-width="10" style="stroke:black;" />
    <circle cx="50" cy="50" r="10" style="fill:black;" />
  </svg>
  <rect width="100" height="100" fill-opacity="0.59" y="600" x="300" style="fill:#ADFF2F;" />
  <svg width="100" height="100" y="600" x="400">
    <text x="50" y="80" font-family="sans-serif" font-weight="550" font-size="80px" letter-spacing="-5" text-anchor="middle">1</text>
  </svg>
  <svg width="100" height="100" y="600" x="500">
    <text x="50" y="80" font-family="sans-serif" font-weight="550" font-size="80px" letter-spacing="-5" text-anchor="middle">1</text>
  </svg>
  <svg width="100" height="100" y="600" x="600">
    <text x="50" y="80" font-family="sans-serif" font-weight="550" font-size="80px" letter-spacing="-5" text-anchor="middle">2</text>
  </svg>
  <svg width="100" height="100" y="700" x="100">
    <text x="50" y="80" font-family="sans-serif" font-weight="550" font-size="80px" letter-spacing="-5" text-anchor="middle">2</text>
  </svg>
  <svg width="100" height="100" y="700" x="200">
    <text x="50" y="80" font-family="sans-serif" font-weight="550" font-size="80px" letter-spacing="-5" text-anchor="middle">1</text>
  </svg>
  <svg width="100" height="100" y="700" x="300">
    <text x="50" y="80" font-family="sans-serif" font-weight="550" font-size="80px" letter-spacing="-5" text-anchor="middle">1</text>
  </svg>
  <svg width="100" height="100" y="700" x="400">
    <text x="50" y="80" font-family="sans-serif" font-weight="550" font-size="80px" letter-spacing="-5" text-anchor="middle">1</text>
  </svg>
  <svg width="100" height="100" y="700" x="500">
    <text x="50" y="80" font-family="sans-serif" font-weight="550" font-size="80px" letter-spacing="-5" text-anchor="middle">2</text>
  </svg>
  <svg width="100" height="100" y="800" x="200">
    <text x="50" y="80" font-family="sans-serif" font-weight="550" font-size="80px" letter-spacing="-5" text-anchor="middle">2</text>
  </svg>
  <svg width="100" height="100" y="800" x="300">
    <text x="50" y="80" font-family="sans-serif" font-weight="550" font-size="80px" letter-spacing="-5" text-anchor="middle">1</text>
  </svg>
  <svg width="100" height="100" y="800" x="400">
    <text x="50" y="80" font-family="sans-serif" font-weight="550" font-size="80px" letter-spacing="-5" text-anchor="middle">2</text>
  </svg>
  <svg width="100" height="100" y="900" x="300">
    <text x="50" y="80" font-family="sans-serif" font-weight="550" font-size="80px" letter-spacing="-5" text-anchor="middle">2</text>
  </svg>
  <svg width="100" height="100" y="900" x="900">
    <line x1="50" y1="0" x2="50" y2="50" transform="rotate(90, 50, 50)" stroke-width="10" style="stroke:black;" />
    <circle cx="50" cy="50" r="10" style="fill:black;" />
  </svg>
</svg>